{"title":"How I Met Your Mother - S07E09 - 720p WEB-DL H.264 {$H@uN}","uid":6808020,"size":210290439,"categoryP":"video","categoryS":"hd___tv_shows","magnet":"?xt=urn:btih:9f48b9f3508df18388a12f48e274922b16ec1cf6&amp;dn=How+I+Met+Your+Mother+-+S07E09+-+720p+WEB-DL+H.264+%7B%24H%40uN%7D&amp;tr=udp%3A%2F%2Ftracker.openbittorrent.com%3A80&amp;tr=udp%3A%2F%2Fopen.demonii.com%3A1337&amp;tr=udp%3A%2F%2Ftracker.coppersurfer.tk%3A6969&amp;tr=udp%3A%2F%2Fexodus.desync.com%3A6969","seeders":1,"leechers":5,"uploader":"ShaunGP","files":-1,"time":1320939293,"description":"&quot;WEB-DL means straight from iTunes where they release &quot;Bluray&quot; quality episodes.\n Such episodes are without any Logo and Caps.&quot;\n\nHow I Met Your Mother - S07E09 - Disaster Averted - 720p WEB-DL H.264 {$H@uN}\n\nGeneral:\n\nComplete name                  : How I Met Your Mother - S07E09 - Disaster Averted - 720p WEB-DL H.264 {$H@uN}.mkv\nOriginal air date              : November 7 2011\nGenre                          : Sitcom\nLanguage                       : English\nEncoder                        : $H@uN\nFile format                    : Matroska\nFile size                      : 201 MiB\nDuration                       : 21mn 32s\nOverall bit rate               : 1 302 Kbps\n\n\nVideo:\n\nFormat                         : AVC\nDuration                       : 21mn 32s\nBit rate                       : 1 200 Kbps\nWidth                          : 1 280 pixels\nHeight                         : 720 pixels\nDisplay aspect ratio           : 16:9\nFrame rate mode                : Variable\nFrame rate                     : 23.976 fps\nColor space                    : YUV\nChroma subsampling             : 4:2:0\nBit depth                      : 8 bits\nScan type                      : Progressive\nBits/(Pixel*Frame)             : 0.054\nStream size                    : 182 MiB (91%)\nWriting library                : x264 core 112\nLanguage                       : English\nSubtitles                      : Seperate .srt file included\n\n\nAudio:\n\nFormat                         : AC-3\nMode extension                 : CM (complete main)\nCodec ID                       : A_AC3\nDuration                       : 21mn 32s\nBit rate mode                  : Constant\nBit rate                       : 96 Kbps\nChannel(s)                     : 2 channels\nChannel positions              : Front: L R\nSampling rate                  : 48.0 KHz\nBit depth                      : 16 bits\nCompression mode               : Lossy\nStream size                    : 14.8 MiB (7%)\nLanguage                       : English\n\nScreen Shots:\n\n\n\n\n\nEncoder's Notes:\n\nDo Provide Feedback.\nKeep in Mind, you are charged nothing for Downloading a TORRENT,\nso its your duty to SEED n keep the torrent alive for as long as possible.\nEnjoy..!!! Keep Seeding till 1:1 ratio...","torrent":{"xt":"urn:btih:9f48b9f3508df18388a12f48e274922b16ec1cf6","amp;dn":"How+I+Met+Your+Mother+-+S07E09+-+720p+WEB-DL+H.264+%7B%24H%40uN%7D","amp;tr":["udp%3A%2F%2Ftracker.openbittorrent.com%3A80","udp%3A%2F%2Fopen.demonii.com%3A1337","udp%3A%2F%2Ftracker.coppersurfer.tk%3A6969","udp%3A%2F%2Fexodus.desync.com%3A6969"],"infoHash":"9f48b9f3508df18388a12f48e274922b16ec1cf6","infoHashBuffer":{"type":"Buffer","data":[159,72,185,243,80,141,241,131,136,161,47,72,226,116,146,43,22,236,28,246]},"announce":[],"urlList":[]}}